<svg width="14" height="16" viewBox="0 0 14 16" fill="none" xmlns="http://www.w3.org/2000/svg">
<path fill-rule="evenodd" clip-rule="evenodd" d="M1.17935 6.79349C1.19016 3.61305 3.77717 1.04355 6.95761 1.05432C10.1381 1.06516 12.7075 3.65218 12.6968 6.83262V6.89784C12.6576 8.96523 11.5033 10.8761 10.088 12.3696C9.27869 13.21 8.37486 13.9541 7.39457 14.587C7.13245 14.8137 6.74365 14.8137 6.48153 14.587C5.02015 13.6358 3.73755 12.4349 2.6924 11.0391C1.76086 9.82205 1.23198 8.34481 1.17935 6.81305V6.79349Z" stroke="#008ECC" stroke-linecap="round" stroke-linejoin="round"/>
<path d="M6.93804 8.75002C7.95737 8.75002 8.7837 7.92369 8.7837 6.90437C8.7837 5.88504 7.95737 5.05872 6.93804 5.05872C5.91872 5.05872 5.09239 5.88504 5.09239 6.90437C5.09239 7.92369 5.91872 8.75002 6.93804 8.75002Z" stroke="#008ECC" stroke-linecap="round" stroke-linejoin="round"/>
</svg>
